<svg width="108" height="108" viewBox="0 0 108 108" fill="none" xmlns="http://www.w3.org/2000/svg">
<g id="account_balance_wallet_FILL0_wght400_GRAD0_opsz24 1">
<path id="Vector" d="M24 90C21.8 90 19.9167 89.2167 18.35 87.65C16.7833 86.0833 16 84.2 16 82V26C16 23.8 16.7833 21.9167 18.35 20.35C19.9167 18.7833 21.8 18 24 18H80.0001C82.2001 18 84.0834 18.7833 85.6501 20.35C87.2167 21.9167 88.0001 23.8 88.0001 26V36H80.0001V26H24V82H80.0001V72H88.0001V82C88.0001 84.2 87.2167 86.0833 85.6501 87.65C84.0834 89.2167 82.2001 90 80.0001 90H24ZM56 74C53.8 74 51.9167 73.2167 50.35 71.65C48.7834 70.0833 48 68.2 48 66V42C48 39.8 48.7834 37.9167 50.35 36.35C51.9167 34.7833 53.8 34 56 34H84.0001C86.2001 34 88.0834 34.7833 89.6501 36.35C91.2167 37.9167 92.0001 39.8 92.0001 42V66C92.0001 68.2 91.2167 70.0833 89.6501 71.65C88.0834 73.2167 86.2001 74 84.0001 74H56ZM84.0001 66V42H56V66H84.0001ZM68 60C69.6667 60 71.0834 59.4167 72.25 58.25C73.4167 57.0833 74.0001 55.6667 74.0001 54C74.0001 52.3333 73.4167 50.9167 72.25 49.75C71.0834 48.5833 69.6667 48 68 48C66.3334 48 64.9167 48.5833 63.75 49.75C62.5834 50.9167 62 52.3333 62 54C62 55.6667 62.5834 57.0833 63.75 58.25C64.9167 59.4167 66.3334 60 68 60Z" fill="#FBF9E4"/>
</g>
</svg>
