<svg width="81" height="81" viewBox="0 0 81 81" fill="none" xmlns="http://www.w3.org/2000/svg">
<g id="history_FILL0_wght400_GRAD0_opsz24 1">
<path id="Vector" d="M41 72C31.8 72 23.7833 68.95 16.95 62.85C10.1167 56.75 6.2 49.1333 5.2 40H13.4C14.3333 46.9333 17.4167 52.6667 22.65 57.2C27.8833 61.7333 34 64 41 64C48.8 64 55.4167 61.2833 60.85 55.85C66.2833 50.4167 69 43.8 69 36C69 28.2 66.2833 21.5833 60.85 16.15C55.4167 10.7167 48.8 8 41 8C36.4 8 32.1 9.06667 28.1 11.2C24.1 13.3333 20.7333 16.2667 18 20H29V28H5V4H13V13.4C16.4 9.13333 20.55 5.83333 25.45 3.5C30.35 1.16667 35.5333 0 41 0C46 0 50.6833 0.95 55.05 2.85C59.4167 4.75 63.2167 7.31667 66.45 10.55C69.6833 13.7833 72.25 17.5833 74.15 21.95C76.05 26.3167 77 31 77 36C77 41 76.05 45.6833 74.15 50.05C72.25 54.4167 69.6833 58.2167 66.45 61.45C63.2167 64.6833 59.4167 67.25 55.05 69.15C50.6833 71.05 46 72 41 72ZM52.2 52.8L37 37.6V16H45V34.4L57.8 47.2L52.2 52.8Z" fill="#FBF9E4"/>
</g>
</svg>
